<?xml version="1.0" encoding="iso-8859-1"?>
<!-- Generator: Adobe Illustrator 19.0.0, SVG Export Plug-In . SVG Version: 6.00 Build 0)  -->
<svg version="1.1" id="Layer_1" xmlns="http://www.w3.org/2000/svg" xmlns:xlink="http://www.w3.org/1999/xlink" x="0px" y="0px"
	 viewBox="0 0 511.997 511.997" style="enable-background:new 0 0 511.997 511.997;" xml:space="preserve">
<path style="fill:#9FDEF7;" d="M344.502,252.981H360.5c32.597,0,59.023-26.425,59.023-59.022c0-0.351-0.021-0.696-0.027-1.046
	H311.054c-20.956,0-37.943-16.99-37.943-37.943c0-20.953,16.987-37.942,37.943-37.942c3.296,0,6.491,0.423,9.542,1.21
	c4.005-5.78,9.972-10.092,16.939-11.985c-11.502-29.665-40.296-50.707-74.022-50.707c-37.806,0-69.418,26.433-77.414,61.822
	c-4.743-1.583-9.813-2.452-15.09-2.452c-16.242,0-30.576,8.133-39.172,20.543c-4.798-1.24-9.832-1.905-15.017-1.905
	c-32.981,0-59.714,26.734-59.714,59.712c0,9.569,2.263,18.607,6.264,26.624c7.013-21.701,27.371-37.4,51.405-37.4
	c25.729,0,47.239,17.989,52.681,42.069c3.229-1.076,6.679-1.668,10.271-1.668c11.05,0,20.807,5.535,26.657,13.98
	c3.265-0.843,6.689-1.296,10.218-1.296c13.802,0,25.989,6.886,33.334,17.406h65.373"/>
<g>
	<path style="fill:#E4F2F9;" d="M48.771,236.514c4.191,0,8.229,0.645,12.028,1.834c-0.022-0.609-0.046-1.219-0.046-1.834
		c0-29.836,24.187-54.023,54.023-54.023c25.729,0,47.239,17.989,52.681,42.069c3.229-1.076,6.679-1.668,10.271-1.668
		c11.05,0,20.807,5.535,26.657,13.98c3.265-0.843,6.689-1.296,10.218-1.296c22.443,0,40.636,18.193,40.636,40.635
		c0,22.441-18.193,40.635-40.636,40.635H48.771c-22.183,0.001-40.166-17.981-40.166-40.164
		C8.605,254.497,26.588,236.514,48.771,236.514z"/>
	<path style="fill:#E4F2F9;" d="M465.893,117.906c-3.914,0-7.685,0.601-11.231,1.712c0.021-0.567,0.044-1.138,0.044-1.712
		c0-27.858-22.584-50.444-50.444-50.444c-24.023,0-44.109,16.796-49.188,39.281c-3.015-1.005-6.235-1.556-9.588-1.556
		c-10.32,0-19.429,5.168-24.891,13.053c-3.05-0.787-6.246-1.21-9.542-1.21c-20.956,0-37.943,16.987-37.943,37.942
		c0,20.953,16.987,37.943,37.943,37.943h154.84c20.71,0,37.502-16.789,37.502-37.503
		C503.395,134.697,486.603,117.906,465.893,117.906z"/>
</g>
<path style="fill:#83D4ED;" d="M184.838,116.946c-3.057-0.62-6.218-0.951-9.46-0.951c-16.242,0-30.576,8.133-39.172,20.542
	c-4.798-1.239-9.832-1.905-15.017-1.905c-32.981,0-59.714,26.734-59.714,59.712c0,9.569,2.263,18.607,6.264,26.624
	c7.013-21.7,27.371-37.4,51.405-37.4c25.729,0,47.239,17.988,52.681,42.069c3.229-1.076,6.679-1.668,10.271-1.668
	c11.05,0,20.807,5.535,26.657,13.979c3.265-0.842,6.689-1.296,10.218-1.296c13.802,0,25.989,6.886,33.334,17.406h44.859
	C235.191,237.725,188.787,183.056,184.838,116.946z"/>
<g>
	<path style="fill:#D7EDF9;" d="M355.465,108.105c-2.152-0.488-4.384-0.766-6.685-0.766c-10.32,0-19.429,5.168-24.891,13.053
		c-3.05-0.787-6.246-1.21-9.542-1.21c-20.956,0-37.943,16.987-37.943,37.942c0,20.953,16.987,37.943,37.943,37.943h96.427
		C378.172,179.659,355.589,146.529,355.465,108.105z"/>
	<path style="fill:#D7EDF9;" d="M80.716,199.683c-9.002,9.652-14.519,22.595-14.519,36.833c0,0.615,0.025,1.225,0.046,1.834
		c-3.798-1.189-7.836-1.834-12.028-1.834c-22.183,0-40.166,17.983-40.166,40.168c0,22.183,17.983,40.164,40.166,40.164h106.209
		h3.593C115.87,299.493,81.333,253.666,80.716,199.683z"/>
</g>
<g>
	<path style="fill:#231F20;" d="M476.267,291.506c-3.798-2.855-9.193-2.089-12.048,1.712l-15.078,20.07
		c-2.854,3.799-2.088,9.193,1.712,12.048c1.548,1.164,3.362,1.725,5.162,1.725c2.614,0,5.195-1.186,6.886-3.437l15.078-20.07
		C480.833,299.755,480.067,294.361,476.267,291.506z"/>
	<path style="fill:#231F20;" d="M441.71,337.502c-3.797-2.855-9.193-2.088-12.048,1.712l-15.078,20.07
		c-2.854,3.799-2.088,9.193,1.712,12.048c1.548,1.164,3.362,1.725,5.162,1.725c2.614,0,5.195-1.186,6.886-3.437l15.078-20.07
		C446.276,345.751,445.511,340.358,441.71,337.502z"/>
	<path style="fill:#231F20;" d="M407.153,383.498c-3.797-2.855-9.193-2.088-12.048,1.712l-15.078,20.071
		c-2.854,3.799-2.088,9.193,1.712,12.048c1.548,1.164,3.362,1.725,5.162,1.725c2.614,0,5.195-1.186,6.886-3.437l15.078-20.071
		C411.719,391.747,410.955,386.352,407.153,383.498z"/>
	<path style="fill:#231F20;" d="M372.598,429.497c-3.801-2.855-9.196-2.09-12.048,1.71l-15.08,20.071
		c-2.855,3.8-2.089,9.194,1.71,12.048c1.549,1.164,3.363,1.725,5.163,1.725c2.614,0,5.195-1.186,6.885-3.436l15.08-20.071
		C377.164,437.745,376.398,432.35,372.598,429.497z"/>
	<path style="fill:#231F20;" d="M410.132,291.507c-3.799-2.855-9.196-2.089-12.048,1.71l-15.08,20.07
		c-2.855,3.799-2.089,9.194,1.71,12.048c1.549,1.164,3.363,1.725,5.163,1.725c2.614,0,5.195-1.186,6.885-3.436l15.08-20.07
		C414.697,299.756,413.931,294.361,410.132,291.507z"/>
	<path style="fill:#231F20;" d="M375.575,337.503c-3.8-2.854-9.196-2.089-12.048,1.71l-15.08,20.07
		c-2.855,3.799-2.089,9.194,1.71,12.048c1.549,1.164,3.363,1.725,5.163,1.725c2.614,0,5.195-1.186,6.885-3.436l15.08-20.07
		C380.14,345.752,379.374,340.358,375.575,337.503z"/>
	<path style="fill:#231F20;" d="M341.018,383.499c-3.8-2.856-9.196-2.089-12.048,1.71l-15.08,20.071
		c-2.855,3.8-2.089,9.194,1.71,12.048c1.549,1.164,3.363,1.725,5.163,1.725c2.614,0,5.195-1.186,6.885-3.436l15.08-20.071
		C345.583,391.747,344.818,386.352,341.018,383.499z"/>
	<path style="fill:#231F20;" d="M306.459,429.496c-3.798-2.855-9.192-2.089-12.048,1.712l-15.078,20.071
		c-2.854,3.799-2.088,9.193,1.712,12.048c1.548,1.164,3.362,1.725,5.162,1.725c2.614,0,5.195-1.186,6.886-3.437l15.078-20.071
		C311.025,437.745,310.259,432.35,306.459,429.496z"/>
	<path style="fill:#231F20;" d="M323.741,327.061c2.614,0,5.195-1.186,6.886-3.437l15.078-20.07
		c2.854-3.799,2.088-9.193-1.712-12.048c-3.798-2.855-9.193-2.089-12.048,1.712l-15.078,20.07
		c-2.854,3.799-2.088,9.193,1.712,12.048C320.127,326.5,321.941,327.061,323.741,327.061z"/>
	<path style="fill:#231F20;" d="M309.436,337.502c-3.798-2.855-9.193-2.088-12.048,1.712l-15.078,20.07
		c-2.854,3.799-2.088,9.193,1.712,12.048c1.548,1.164,3.362,1.725,5.162,1.725c2.614,0,5.195-1.186,6.886-3.437l15.078-20.07
		C314.002,345.751,313.236,340.358,309.436,337.502z"/>
	<path style="fill:#231F20;" d="M274.88,383.499c-3.8-2.856-9.196-2.089-12.048,1.71l-15.08,20.071
		c-2.855,3.8-2.089,9.194,1.71,12.048c1.549,1.164,3.363,1.725,5.163,1.725c2.614,0,5.195-1.186,6.885-3.436l15.08-20.071
		C279.445,391.747,278.68,386.352,274.88,383.499z"/>
	<path style="fill:#231F20;" d="M240.324,429.497c-3.8-2.855-9.196-2.09-12.048,1.71l-15.08,20.071
		c-2.855,3.8-2.089,9.194,1.71,12.048c1.549,1.164,3.363,1.725,5.163,1.725c2.614,0,5.195-1.186,6.885-3.436l15.08-20.071
		C244.889,437.745,244.123,432.35,240.324,429.497z"/>
	<path style="fill:#231F20;" d="M243.297,337.502c-3.798-2.855-9.193-2.088-12.048,1.712l-15.078,20.07
		c-2.854,3.799-2.088,9.193,1.712,12.048c1.548,1.164,3.362,1.725,5.162,1.725c2.614,0,5.195-1.186,6.886-3.437l15.078-20.07
		C247.864,345.751,247.098,340.358,243.297,337.502z"/>
	<path style="fill:#231F20;" d="M208.74,383.498c-3.798-2.855-9.193-2.088-12.048,1.712l-15.078,20.071
		c-2.854,3.799-2.088,9.193,1.712,12.048c1.548,1.164,3.362,1.725,5.162,1.725c2.614,0,5.195-1.186,6.886-3.437l15.078-20.071
		C213.307,391.747,212.541,386.352,208.74,383.498z"/>
	<path style="fill:#231F20;" d="M174.185,429.497c-3.8-2.855-9.194-2.09-12.048,1.71l-15.08,20.071
		c-2.855,3.8-2.089,9.194,1.71,12.048c1.549,1.164,3.363,1.725,5.163,1.725c2.614,0,5.195-1.186,6.885-3.436l15.08-20.071
		C178.751,437.745,177.985,432.35,174.185,429.497z"/>
	<path style="fill:#231F20;" d="M177.162,337.503c-3.8-2.854-9.196-2.089-12.048,1.71l-15.08,20.07
		c-2.855,3.799-2.089,9.194,1.71,12.048c1.549,1.164,3.363,1.725,5.163,1.725c2.614,0,5.195-1.186,6.885-3.436l15.08-20.07
		C181.727,345.752,180.961,340.358,177.162,337.503z"/>
	<path style="fill:#231F20;" d="M142.605,383.499c-3.8-2.856-9.194-2.089-12.048,1.71l-15.08,20.071
		c-2.855,3.8-2.089,9.194,1.71,12.048c1.549,1.164,3.363,1.725,5.163,1.725c2.614,0,5.195-1.186,6.885-3.436l15.08-20.071
		C147.17,391.747,146.404,386.352,142.605,383.499z"/>
	<path style="fill:#231F20;" d="M108.046,429.496c-3.797-2.855-9.193-2.089-12.048,1.712l-15.078,20.071
		c-2.854,3.799-2.088,9.193,1.712,12.048c1.548,1.164,3.362,1.725,5.162,1.725c2.614,0,5.195-1.186,6.886-3.437l15.078-20.071
		C112.612,437.745,111.846,432.35,108.046,429.496z"/>
	<path style="fill:#231F20;" d="M111.023,337.502c-3.797-2.855-9.193-2.088-12.048,1.712l-15.078,20.07
		c-2.854,3.799-2.088,9.193,1.712,12.048c1.548,1.164,3.362,1.725,5.162,1.725c2.614,0,5.195-1.186,6.886-3.437l15.078-20.07
		C115.589,345.751,114.823,340.358,111.023,337.502z"/>
	<path style="fill:#231F20;" d="M76.467,383.499c-3.8-2.856-9.196-2.089-12.048,1.71l-15.08,20.071
		c-2.855,3.8-2.089,9.194,1.71,12.048c1.549,1.164,3.363,1.725,5.163,1.725c2.614,0,5.195-1.186,6.885-3.436l15.08-20.071
		C81.032,391.747,80.266,386.352,76.467,383.499z"/>
	<path style="fill:#231F20;" d="M41.911,429.497c-3.8-2.855-9.196-2.09-12.048,1.71l-15.08,20.071
		c-2.855,3.8-2.089,9.194,1.71,12.048c1.549,1.164,3.363,1.725,5.163,1.725c2.614,0,5.195-1.186,6.885-3.436l15.08-20.071
		C46.476,437.745,45.71,432.35,41.911,429.497z"/>
	<path style="fill:#231F20;" d="M465.893,109.301c-1.067,0-2.131,0.037-3.191,0.11c-4.13-28.549-28.763-50.552-58.439-50.552
		c-24.923,0-46.543,15.217-55.148,37.893c-1.204-0.112-2.415-0.169-3.629-0.169c-0.919,0-1.831,0.044-2.739,0.109
		c-6.555-13.592-16.462-25.245-28.966-33.97c-14.791-10.322-32.174-15.777-50.269-15.777c-20.081,0-39.721,6.945-55.3,19.557
		c-13.059,10.571-22.852,24.746-28.148,40.545c-2.986-0.487-6.013-0.734-9.056-0.734c-16.478,0-32.034,7.237-42.663,19.61
		c-3.8-0.648-7.657-0.972-11.526-0.972c-37.671,0-68.319,30.647-68.319,68.317c0,9.521,1.929,18.694,5.713,27.324
		c-0.642,2.44-1.153,4.931-1.498,7.476c-1.309-0.106-2.623-0.158-3.943-0.158C21.878,227.909,0,249.789,0,276.682
		c0,26.892,21.878,48.77,48.771,48.77h165.831c27.152,0,49.241-22.089,49.241-49.24c0-5.09-0.777-10.002-2.217-14.625h51.684
		c4.752,0,8.605-3.853,8.605-8.605c0-4.752-3.853-8.605-8.605-8.605h-61.154c-0.308-0.362-0.631-0.706-0.949-1.057
		c-0.091-0.101-0.181-0.203-0.272-0.303c-0.443-0.485-0.897-0.958-1.357-1.424c-0.118-0.119-0.237-0.238-0.356-0.356
		c-0.452-0.446-0.909-0.884-1.376-1.311c-0.144-0.132-0.291-0.261-0.438-0.393c-0.455-0.407-0.913-0.809-1.381-1.197
		c-0.183-0.152-0.371-0.298-0.556-0.447c-0.444-0.358-0.89-0.716-1.346-1.057c-0.281-0.211-0.571-0.411-0.856-0.615
		c-0.374-0.268-0.744-0.543-1.125-0.8c-0.692-0.468-1.396-0.919-2.111-1.352c-0.061-0.038-0.126-0.071-0.187-0.108
		c-0.684-0.41-1.379-0.803-2.085-1.181c-0.087-0.046-0.175-0.088-0.262-0.134c-0.686-0.362-1.381-0.709-2.087-1.039
		c-0.086-0.041-0.174-0.079-0.261-0.118c-0.709-0.327-1.426-0.638-2.153-0.931c-0.083-0.033-0.167-0.066-0.251-0.099
		c-0.73-0.29-1.468-0.564-2.215-0.82c-0.085-0.029-0.17-0.058-0.256-0.087c-0.742-0.25-1.493-0.482-2.25-0.697
		c-0.092-0.026-0.185-0.053-0.278-0.079c-0.744-0.207-1.495-0.395-2.253-0.567c-0.109-0.025-0.217-0.052-0.327-0.075
		c-0.734-0.161-1.473-0.303-2.217-0.431c-0.134-0.024-0.268-0.051-0.402-0.072c-0.711-0.116-1.428-0.213-2.15-0.298
		c-0.166-0.019-0.33-0.045-0.497-0.063c-0.699-0.075-1.405-0.13-2.113-0.175c-0.181-0.012-0.36-0.031-0.542-0.041
		c-0.877-0.046-1.759-0.073-2.647-0.073c-2.273,0-4.541,0.157-6.787,0.467c-7.71-8.319-18.592-13.151-30.09-13.151
		c-1.439,0-2.873,0.075-4.297,0.225c-9.014-24.293-32.06-40.626-58.654-40.626c-1.115,0-2.222,0.037-3.324,0.095
		c-0.375,0.019-0.748,0.053-1.122,0.079c-0.719,0.051-1.434,0.11-2.146,0.184c-0.456,0.047-0.91,0.102-1.364,0.159
		c-0.608,0.077-1.211,0.166-1.813,0.26c-0.51,0.08-1.02,0.158-1.525,0.251c-0.469,0.086-0.933,0.186-1.398,0.282
		c-14.396,2.954-27.175,10.829-36.215,22.143c-0.105-1.347-0.157-2.704-0.157-4.07c0-28.18,22.927-51.107,51.109-51.107
		c4.348,0,8.675,0.55,12.863,1.632c3.485,0.902,7.173-0.468,9.227-3.43c7.303-10.544,19.302-16.838,32.099-16.838
		c4.208,0,8.368,0.677,12.366,2.01c2.306,0.77,4.831,0.529,6.949-0.667c2.119-1.193,3.632-3.228,4.169-5.6
		c7.331-32.449,35.713-55.112,69.02-55.112c26.641,0,50.384,14.526,62.552,37.636c-0.101,0.058-0.197,0.127-0.298,0.187
		c-0.615,0.362-1.221,0.742-1.817,1.139c-0.151,0.1-0.302,0.198-0.451,0.3c-0.707,0.485-1.4,0.991-2.076,1.523
		c-0.073,0.057-0.142,0.118-0.214,0.176c-0.603,0.482-1.19,0.985-1.765,1.505c-0.142,0.129-0.285,0.257-0.425,0.387
		c-0.631,0.587-1.251,1.187-1.844,1.818c-2.026-0.267-4.072-0.401-6.121-0.401c-25.667,0-46.548,20.88-46.548,46.546
		c0,25.667,20.881,46.548,46.548,46.548h99.3c-3.658,24.226-24.622,42.857-49.853,42.857H344.5c-4.752,0-8.605,3.853-8.605,8.605
		s3.853,8.605,8.605,8.605h15.998c34.733,0,63.422-26.324,67.194-60.067h38.198c25.423,0,46.107-20.683,46.107-46.108
		C512,129.987,491.316,109.301,465.893,109.301z M159.061,226.457c0.536,2.371,2.049,4.405,4.167,5.598
		c2.118,1.194,4.641,1.437,6.946,0.669c2.444-0.814,4.986-1.227,7.552-1.227c7.805,0,15.127,3.841,19.584,10.277
		c2.054,2.963,5.741,4.328,9.226,3.43c2.627-0.679,5.34-1.023,8.066-1.023c0.614,0,1.225,0.022,1.834,0.056
		c0.155,0.009,0.308,0.024,0.463,0.035c0.468,0.033,0.935,0.074,1.399,0.129c0.148,0.017,0.297,0.038,0.445,0.057
		c0.494,0.065,0.986,0.139,1.475,0.227c0.1,0.017,0.2,0.034,0.299,0.054c2.465,0.465,4.858,1.215,7.128,2.231
		c0.035,0.016,0.07,0.032,0.105,0.047c0.53,0.239,1.053,0.494,1.569,0.762c0.047,0.025,0.096,0.048,0.143,0.073
		c1.089,0.571,2.145,1.205,3.162,1.898c0.099,0.068,0.196,0.141,0.295,0.21c0.369,0.258,0.734,0.523,1.092,0.796
		c0.184,0.141,0.365,0.285,0.545,0.429c0.266,0.212,0.528,0.429,0.787,0.65c0.203,0.173,0.407,0.347,0.606,0.525
		c0.231,0.207,0.456,0.421,0.682,0.635c0.202,0.191,0.408,0.38,0.606,0.577c0.369,0.368,0.728,0.746,1.08,1.134
		c0.204,0.225,0.4,0.459,0.598,0.689c0.182,0.212,0.364,0.423,0.54,0.64c0.191,0.236,0.379,0.475,0.564,0.717
		c0.177,0.231,0.352,0.466,0.524,0.703c3.826,5.277,6.091,11.755,6.091,18.758c0,17.662-14.369,32.03-32.031,32.03H48.771
		c-17.403-0.001-31.561-14.158-31.561-31.561c0-17.405,14.158-31.563,31.561-31.563c3.22,0,6.402,0.485,9.457,1.441
		c2.663,0.834,5.564,0.324,7.784-1.367c2.219-1.691,3.482-4.354,3.385-7.143l-0.01-0.264c-0.015-0.424-0.031-0.847-0.031-1.274
		c0-5.434,0.962-10.648,2.72-15.483c0.016-0.044,0.03-0.089,0.046-0.133c5.608-15.27,19.195-26.717,35.682-29.268
		c0.084-0.013,0.168-0.023,0.252-0.036c0.598-0.089,1.2-0.165,1.806-0.23c0.198-0.022,0.396-0.041,0.594-0.059
		c0.521-0.049,1.044-0.088,1.57-0.119c0.203-0.012,0.407-0.027,0.611-0.037c0.709-0.033,1.42-0.054,2.136-0.054
		C136.145,191.096,154.358,205.638,159.061,226.457z M465.893,184.31h-46.397H311.054c-16.177,0-29.338-13.16-29.338-29.338
		c0-16.176,13.16-29.336,29.338-29.336c2.497,0,4.983,0.315,7.391,0.937c2.107,0.542,4.278,0.246,6.122-0.714
		c0.066-0.034,0.138-0.057,0.202-0.094c0.087-0.048,0.165-0.113,0.251-0.165c1.025-0.615,1.938-1.434,2.649-2.46
		c0.325-0.47,0.674-0.92,1.034-1.36c0.092-0.113,0.186-0.224,0.281-0.336c0.324-0.38,0.657-0.75,1.005-1.106
		c0.051-0.052,0.099-0.108,0.15-0.158c0.4-0.401,0.817-0.784,1.246-1.152c0.096-0.082,0.194-0.16,0.29-0.241
		c0.367-0.303,0.743-0.596,1.128-0.874c0.088-0.063,0.174-0.131,0.264-0.194c0.456-0.319,0.925-0.622,1.406-0.906
		c0.102-0.06,0.207-0.116,0.31-0.174c0.402-0.229,0.812-0.445,1.229-0.649c0.12-0.059,0.24-0.119,0.361-0.176
		c0.507-0.236,1.022-0.455,1.548-0.651c0.075-0.028,0.153-0.052,0.229-0.08c0.482-0.173,0.971-0.33,1.466-0.469
		c1.89-0.535,3.862-0.823,5.872-0.823c2.335,0,4.646,0.375,6.869,1.115c2.308,0.768,4.83,0.526,6.946-0.669
		c2.118-1.193,3.631-3.228,4.167-5.599c4.264-18.874,21.42-32.572,40.795-32.572c23.069,0,41.838,18.769,41.838,41.838
		c0,0.422-0.018,0.84-0.033,1.257l-0.004,0.137c-0.104,2.792,1.155,5.462,3.377,7.157c2.22,1.696,5.126,2.209,7.795,1.371
		c2.791-0.874,5.704-1.319,8.658-1.319c15.933,0,28.897,12.965,28.897,28.9C494.79,171.347,481.827,184.31,465.893,184.31z"/>
</g>
<g>
</g>
<g>
</g>
<g>
</g>
<g>
</g>
<g>
</g>
<g>
</g>
<g>
</g>
<g>
</g>
<g>
</g>
<g>
</g>
<g>
</g>
<g>
</g>
<g>
</g>
<g>
</g>
<g>
</g>
</svg>
